<svg height='300px' width='300px'  fill="#000000" xmlns="http://www.w3.org/2000/svg" xmlns:xlink="http://www.w3.org/1999/xlink" viewBox="0 0 64 64" version="1.1" x="0px" y="0px"><title>30</title><desc>Created with Sketch.</desc><g stroke="none" stroke-width="1" fill="none" fill-rule="evenodd"><path d="M32,61 C48.0162577,61 61,48.0162577 61,32 C61,15.9837423 48.0162577,3 32,3 C15.9837423,3 3,15.9837423 3,32 C3,48.0162577 15.9837423,61 32,61 Z M32,62 C15.4314575,62 2,48.5685425 2,32 C2,15.4314575 15.4314575,2 32,2 C48.5685425,2 62,15.4314575 62,32 C62,48.5685425 48.5685425,62 32,62 Z" fill="#000000" fill-rule="nonzero"></path><path d="M49.1236391,37.5638076 C49.6925368,35.8117028 50,33.9417573 50,32 C50,22.0588745 41.9411255,14 32,14 L32,6 C46.3594035,6 58,17.6405965 58,32 C58,34.8047606 57.5558864,37.5057929 56.7341453,40.036611 L49.1236391,37.5638076 Z" fill="#000000" fill-rule="nonzero"></path></g></svg>