<svg height='300px' width='300px'  fill="#000000" xmlns="http://www.w3.org/2000/svg" xmlns:xlink="http://www.w3.org/1999/xlink" viewBox="0 0 64 64" version="1.1" x="0px" y="0px"><title>90</title><desc>Created with Sketch.</desc><g stroke="none" stroke-width="1" fill="none" fill-rule="evenodd"><path d="M32,61 C48.0162577,61 61,48.0162577 61,32 C61,15.9837423 48.0162577,3 32,3 C15.9837423,3 3,15.9837423 3,32 C3,48.0162577 15.9837423,61 32,61 Z M32,62 C15.4314575,62 2,48.5685425 2,32 C2,15.4314575 15.4314575,2 32,2 C48.5685425,2 62,15.4314575 62,32 C62,48.5685425 48.5685425,62 32,62 Z" fill="#000000" fill-rule="nonzero"></path><path d="M32,14 L32,6 C46.3594035,6 58,17.6405965 58,32 C58,46.3594035 46.3594035,58 32,58 C17.6405965,58 6,46.3594035 6,32 C6,23.3524653 10.221697,15.6909608 16.7165045,10.9640731 L21.4191185,17.436666 C16.9227133,20.7091267 14,26.0132452 14,32 C14,41.9411255 22.0588745,50 32,50 C41.9411255,50 50,41.9411255 50,32 C50,22.0588745 41.9411255,14 32,14 Z" fill="#000000" fill-rule="nonzero"></path></g></svg>