<svg height='300px' width='300px'  fill="#000000" xmlns="http://www.w3.org/2000/svg" xmlns:xlink="http://www.w3.org/1999/xlink" viewBox="0 0 64 64" version="1.1" x="0px" y="0px"><title>70</title><desc>Created with Sketch.</desc><g stroke="none" stroke-width="1" fill="none" fill-rule="evenodd"><path d="M32,61 C48.0162577,61 61,48.0162577 61,32 C61,15.9837423 48.0162577,3 32,3 C15.9837423,3 3,15.9837423 3,32 C3,48.0162577 15.9837423,61 32,61 Z M32,62 C15.4314575,62 2,48.5685425 2,32 C2,15.4314575 15.4314575,2 32,2 C48.5685425,2 62,15.4314575 62,32 C62,48.5685425 48.5685425,62 32,62 Z" fill="#000000" fill-rule="nonzero"></path><path d="M32.5,14.0068104 L32.5,6.0047116 C46.6286524,6.27119206 58,17.8076358 58,32 C58,46.3594035 46.3594035,58 32,58 C20.4937232,58 10.733169,50.5256734 7.30870226,40.1673853 L14.9209783,37.6993746 C17.3051194,44.8471184 24.0507997,50 32,50 C41.9411255,50 50,41.9411255 50,32 C50,22.2260835 42.2099449,14.2716318 32.5,14.0068104 Z" fill="#000000" fill-rule="nonzero"></path></g></svg>