<?xml version="1.0" standalone="no"?>
<!DOCTYPE svg PUBLIC "-//W3C//DTD SVG 20010904//EN"
 "http://www.w3.org/TR/2001/REC-SVG-20010904/DTD/svg10.dtd">
<svg version="1.0" xmlns="http://www.w3.org/2000/svg"
 width="96.000000pt" height="96.000000pt" viewBox="0 0 96.000000 96.000000"
 preserveAspectRatio="xMidYMid meet">
<metadata>
Created by potrace 1.15, written by Peter Selinger 2001-2017
</metadata>
<g transform="translate(0.000000,96.000000) scale(0.100000,-0.100000)"
fill="#000000" stroke="none">
<path d="M687 833 c-4 -3 -7 -30 -7 -60 l0 -53 -300 0 -300 0 0 -40 0 -40 300
0 299 0 3 -57 c3 -56 4 -58 32 -61 24 -3 40 7 97 64 50 49 69 76 69 94 0 36
-125 160 -161 160 -14 0 -29 -3 -32 -7z"/>
<path d="M148 373 c-88 -89 -88 -99 1 -187 57 -57 73 -67 97 -64 28 3 29 5 32
61 l3 57 299 0 300 0 0 40 0 40 -300 0 -299 0 -3 58 c-3 55 -4 57 -33 60 -25
2 -40 -8 -97 -65z"/>
</g>
</svg>
