<?xml version="1.0" standalone="no"?>
<!DOCTYPE svg PUBLIC "-//W3C//DTD SVG 20010904//EN"
 "http://www.w3.org/TR/2001/REC-SVG-20010904/DTD/svg10.dtd">
<svg version="1.0" xmlns="http://www.w3.org/2000/svg"
 width="96.000000pt" height="96.000000pt" viewBox="0 0 96.000000 96.000000"
 preserveAspectRatio="xMidYMid meet">
<metadata>
Created by potrace 1.15, written by Peter Selinger 2001-2017
</metadata>
<g transform="translate(0.000000,96.000000) scale(0.100000,-0.100000)"
fill="#000000" stroke="none">
<path d="M160 840 l0 -40 -40 0 -40 0 0 -60 0 -60 120 0 120 0 0 60 0 60 -40
0 -40 0 0 40 0 40 -40 0 -40 0 0 -40z"/>
<path d="M440 640 l0 -240 -40 0 -40 0 0 -60 0 -60 120 0 120 0 0 60 0 60 -40
0 -40 0 0 240 0 240 -40 0 -40 0 0 -240z"/>
<path d="M720 740 l0 -140 -40 0 -40 0 0 -60 0 -60 120 0 120 0 0 60 0 60 -40
0 -40 0 0 140 0 140 -40 0 -40 0 0 -140z"/>
<path d="M160 340 l0 -260 40 0 40 0 0 260 0 260 -40 0 -40 0 0 -260z"/>
<path d="M720 240 l0 -160 40 0 40 0 0 160 0 160 -40 0 -40 0 0 -160z"/>
</g>
</svg>
