<?xml version="1.0" standalone="no"?>
<!DOCTYPE svg PUBLIC "-//W3C//DTD SVG 20010904//EN"
 "http://www.w3.org/TR/2001/REC-SVG-20010904/DTD/svg10.dtd">
<svg version="1.0" xmlns="http://www.w3.org/2000/svg"
 width="96.000000pt" height="96.000000pt" viewBox="0 0 96.000000 96.000000"
 preserveAspectRatio="xMidYMid meet">
<metadata>
Created by potrace 1.15, written by Peter Selinger 2001-2017
</metadata>
<g transform="translate(0.000000,96.000000) scale(0.100000,-0.100000)"
fill="#000000" stroke="none">
<path d="M309 840 l-38 -40 -96 0 -95 0 0 -40 0 -40 95 0 96 0 38 -40 c35 -37
42 -40 90 -40 47 0 57 4 87 34 30 30 34 40 34 86 0 46 -4 56 -34 86 -30 30
-40 34 -87 34 -48 0 -55 -3 -90 -40z"/>
<path d="M600 760 l0 -40 140 0 140 0 0 40 0 40 -140 0 -140 0 0 -40z"/>
<path d="M509 560 l-38 -40 -196 0 -195 0 0 -40 0 -40 195 0 196 0 38 -40 c35
-37 42 -40 90 -40 47 0 57 4 87 34 30 30 34 40 34 86 0 46 -4 56 -34 86 -30
30 -40 34 -87 34 -48 0 -55 -3 -90 -40z"/>
<path d="M189 280 c-31 -32 -45 -40 -74 -40 -34 0 -35 -1 -35 -40 0 -39 1 -40
35 -40 29 0 43 -8 74 -40 35 -37 42 -40 90 -40 47 0 57 4 87 34 30 30 34 40
34 86 0 46 -4 56 -34 86 -30 30 -40 34 -87 34 -48 0 -55 -3 -90 -40z"/>
<path d="M480 200 l0 -40 200 0 200 0 0 40 0 40 -200 0 -200 0 0 -40z"/>
</g>
</svg>
