<?xml version="1.0" standalone="no"?>
<!DOCTYPE svg PUBLIC "-//W3C//DTD SVG 20010904//EN"
 "http://www.w3.org/TR/2001/REC-SVG-20010904/DTD/svg10.dtd">
<svg version="1.0" xmlns="http://www.w3.org/2000/svg"
 width="96.000000pt" height="96.000000pt" viewBox="0 0 96.000000 96.000000"
 preserveAspectRatio="xMidYMid meet">
<metadata>
Created by potrace 1.15, written by Peter Selinger 2001-2017
</metadata>
<g transform="translate(0.000000,96.000000) scale(0.100000,-0.100000)"
fill="#000000" stroke="none">
<path d="M720 821 l0 -61 -360 0 -360 0 0 -40 0 -40 360 0 360 0 0 -61 c0 -33
4 -59 8 -57 15 5 211 153 211 158 0 5 -196 153 -211 158 -4 2 -8 -24 -8 -57z"/>
<path d="M109 320 c-31 -32 -45 -40 -74 -40 -34 0 -35 -1 -35 -40 0 -39 1 -40
35 -40 29 0 43 -8 74 -40 35 -37 42 -40 91 -40 49 0 56 3 91 40 21 22 43 40
49 40 6 0 28 -18 49 -40 35 -37 42 -40 91 -40 49 0 56 3 91 40 21 22 43 40 49
40 6 0 28 -18 49 -40 35 -37 42 -40 91 -40 49 0 56 3 91 40 31 32 45 40 74 40
34 0 35 1 35 40 0 39 -1 40 -35 40 -29 0 -43 8 -74 40 -35 37 -42 40 -91 40
-49 0 -56 -3 -91 -40 -21 -22 -43 -40 -49 -40 -6 0 -28 18 -49 40 -35 37 -42
40 -91 40 -49 0 -56 -3 -91 -40 -21 -22 -43 -40 -49 -40 -6 0 -28 18 -49 40
-35 37 -42 40 -91 40 -49 0 -56 -3 -91 -40z"/>
</g>
</svg>
