<?xml version="1.0" standalone="no"?>
<!DOCTYPE svg PUBLIC "-//W3C//DTD SVG 20010904//EN"
 "http://www.w3.org/TR/2001/REC-SVG-20010904/DTD/svg10.dtd">
<svg version="1.0" xmlns="http://www.w3.org/2000/svg"
 width="96.000000pt" height="96.000000pt" viewBox="0 0 96.000000 96.000000"
 preserveAspectRatio="xMidYMid meet">
<metadata>
Created by potrace 1.15, written by Peter Selinger 2001-2017
</metadata>
<g transform="translate(0.000000,96.000000) scale(0.100000,-0.100000)"
fill="#000000" stroke="none">
<path d="M200 700 l0 -140 -80 0 -80 0 0 -40 0 -40 80 0 80 0 0 -134 0 -134
84 -71 c47 -39 90 -71 96 -71 6 0 49 32 96 71 l84 71 0 314 0 314 -180 0 -180
0 0 -140z"/>
<path d="M640 520 l0 -40 140 0 140 0 0 40 0 40 -140 0 -140 0 0 -40z"/>
</g>
</svg>
