<?xml version="1.0" standalone="no"?>
<!DOCTYPE svg PUBLIC "-//W3C//DTD SVG 20010904//EN"
 "http://www.w3.org/TR/2001/REC-SVG-20010904/DTD/svg10.dtd">
<svg version="1.0" xmlns="http://www.w3.org/2000/svg"
 width="100.000000pt" height="100.000000pt" viewBox="0 0 100.000000 100.000000"
 preserveAspectRatio="xMidYMid meet">
<metadata>
Created by potrace 1.15, written by Peter Selinger 2001-2017
</metadata>
<g transform="translate(0.000000,100.000000) scale(0.100000,-0.100000)"
fill="#000000" stroke="none">
<path d="M150 895 l0 -55 345 0 345 0 0 55 0 55 -345 0 -345 0 0 -55z"/>
<path d="M190 595 l0 -215 125 0 c69 0 125 2 125 5 0 3 -10 19 -22 35 -17 24
-29 30 -58 30 -56 0 -60 10 -60 141 0 94 3 121 16 133 13 13 43 16 175 16 92
0 169 -4 180 -10 17 -10 19 -22 19 -133 0 -82 -4 -127 -12 -135 -7 -7 -29 -12
-49 -12 -32 0 -40 -5 -58 -35 l-20 -35 124 0 125 0 0 215 0 215 -305 0 -305 0
0 -215z"/>
<path d="M450 510 c-11 -11 -20 -31 -20 -45 0 -14 9 -34 20 -45 25 -25 29
-110 5 -110 -8 0 -15 9 -15 20 0 19 -7 20 -128 20 l-129 0 -11 -39 c-7 -21
-12 -41 -12 -45 0 -3 151 -6 335 -6 184 0 335 3 335 6 0 4 -5 24 -12 45 l-11
39 -129 0 c-121 0 -128 -1 -128 -20 0 -11 -7 -20 -15 -20 -24 0 -20 85 5 110
11 11 20 31 20 45 0 14 -9 34 -20 45 -11 11 -31 20 -45 20 -14 0 -34 -9 -45
-20z"/>
<path d="M150 145 l0 -85 345 0 345 0 0 85 0 85 -345 0 -345 0 0 -85z"/>
</g>
</svg>
