<?xml version="1.0" standalone="no"?>
<!DOCTYPE svg PUBLIC "-//W3C//DTD SVG 20010904//EN"
 "http://www.w3.org/TR/2001/REC-SVG-20010904/DTD/svg10.dtd">
<svg version="1.0" xmlns="http://www.w3.org/2000/svg"
 width="100.000000pt" height="100.000000pt" viewBox="0 0 100.000000 100.000000"
 preserveAspectRatio="xMidYMid meet">
<metadata>
Created by potrace 1.15, written by Peter Selinger 2001-2017
</metadata>
<g transform="translate(0.000000,100.000000) scale(0.100000,-0.100000)"
fill="#000000" stroke="none">
<path d="M150 932 c-19 -19 -30 -44 -35 -73 -3 -24 -5 -199 -3 -389 3 -315 5
-348 21 -374 35 -53 56 -56 417 -56 l330 0 0 25 0 25 -331 0 -331 0 -29 29
c-35 36 -36 45 -4 76 l24 25 336 0 335 0 0 370 0 370 -351 0 -351 0 -28 -28z
m360 -349 l-1 -178 -44 50 -45 49 0 79 c0 77 1 79 42 128 22 27 43 49 45 49 1
0 3 -80 3 -177z"/>
</g>
</svg>
