<?xml version="1.0" standalone="no"?>
<!DOCTYPE svg PUBLIC "-//W3C//DTD SVG 20010904//EN"
 "http://www.w3.org/TR/2001/REC-SVG-20010904/DTD/svg10.dtd">
<svg version="1.0" xmlns="http://www.w3.org/2000/svg"
 width="96.000000pt" height="96.000000pt" viewBox="0 0 96.000000 96.000000"
 preserveAspectRatio="xMidYMid meet">
<metadata>
Created by potrace 1.15, written by Peter Selinger 2001-2017
</metadata>
<g transform="translate(0.000000,96.000000) scale(0.100000,-0.100000)"
fill="#000000" stroke="none">
<path d="M76 728 c-49 -75 -70 -144 -74 -240 -4 -86 -2 -102 21 -151 41 -91
121 -137 237 -137 83 0 123 15 179 65 l41 37 41 -37 c56 -50 96 -65 179 -65
116 0 196 46 237 137 23 49 25 65 21 152 -3 91 -7 104 -43 177 -22 43 -45 79
-50 79 -6 0 -23 -10 -39 -23 l-29 -22 33 -66 c28 -54 34 -79 38 -149 4 -74 2
-88 -18 -120 -29 -48 -85 -75 -153 -75 -124 0 -196 113 -158 248 9 30 7 34
-25 58 l-34 26 -34 -26 c-32 -24 -34 -28 -25 -58 38 -135 -34 -248 -158 -248
-68 0 -124 27 -153 75 -20 32 -22 47 -18 118 3 67 10 94 37 149 l33 67 -28 25
c-36 31 -40 32 -58 4z"/>
</g>
</svg>
