<?xml version="1.0" standalone="no"?>
<!DOCTYPE svg PUBLIC "-//W3C//DTD SVG 20010904//EN"
 "http://www.w3.org/TR/2001/REC-SVG-20010904/DTD/svg10.dtd">
<svg version="1.0" xmlns="http://www.w3.org/2000/svg"
 width="90.000000pt" height="90.000000pt" viewBox="0 0 90.000000 90.000000"
 preserveAspectRatio="xMidYMid meet">
<metadata>
Created by potrace 1.15, written by Peter Selinger 2001-2017
</metadata>
<g transform="translate(0.000000,90.000000) scale(0.100000,-0.100000)"
fill="#000000" stroke="none">
<path d="M400 807 c-80 -28 -104 -135 -44 -198 15 -16 34 -29 41 -29 9 0 13
-17 13 -61 0 -53 -3 -64 -25 -81 -47 -37 -33 -48 60 -48 93 0 107 11 60 48
-22 17 -25 28 -25 81 0 46 4 61 14 61 8 0 26 14 40 30 85 102 -9 240 -134 197z"/>
<path d="M130 320 c-26 -26 -28 -133 -4 -168 15 -22 16 -22 318 -22 221 0 305
3 314 12 19 19 16 163 -4 182 -13 14 -56 16 -310 16 -281 0 -295 -1 -314 -20z"/>
</g>
</svg>
