<?xml version="1.0" standalone="no"?>
<!DOCTYPE svg PUBLIC "-//W3C//DTD SVG 20010904//EN"
 "http://www.w3.org/TR/2001/REC-SVG-20010904/DTD/svg10.dtd">
<svg version="1.0" xmlns="http://www.w3.org/2000/svg"
 width="96.000000pt" height="96.000000pt" viewBox="0 0 96.000000 96.000000"
 preserveAspectRatio="xMidYMid meet">
<metadata>
Created by potrace 1.15, written by Peter Selinger 2001-2017
</metadata>
<g transform="translate(0.000000,96.000000) scale(0.100000,-0.100000)"
fill="#000000" stroke="none">
<path d="M528 811 c-47 -30 -88 -95 -88 -142 0 -34 195 -229 230 -229 46 0
111 41 141 88 24 38 29 56 29 111 0 124 -77 201 -201 201 -55 0 -73 -5 -111
-29z"/>
<path d="M235 404 c-97 -120 -151 -194 -153 -212 -4 -38 73 -115 112 -110 27
3 395 294 396 313 0 13 -182 195 -195 195 -6 -1 -77 -84 -160 -186z"/>
</g>
</svg>
