<?xml version="1.0" standalone="no"?>
<!DOCTYPE svg PUBLIC "-//W3C//DTD SVG 20010904//EN"
 "http://www.w3.org/TR/2001/REC-SVG-20010904/DTD/svg10.dtd">
<svg version="1.0" xmlns="http://www.w3.org/2000/svg"
 width="100.000000pt" height="100.000000pt" viewBox="0 0 100.000000 100.000000"
 preserveAspectRatio="xMidYMid meet">
<metadata>
Created by potrace 1.15, written by Peter Selinger 2001-2017
</metadata>
<g transform="translate(0.000000,100.000000) scale(0.100000,-0.100000)"
fill="#000000" stroke="none">
<path d="M444 939 c-28 -3 -68 -15 -90 -25 -91 -43 -176 -168 -208 -305 -22
-92 -42 -514 -26 -534 10 -12 37 -15 120 -15 l107 0 47 35 c39 30 46 41 46 70
0 33 1 33 29 22 22 -8 36 -8 55 1 25 11 26 10 26 -16 0 -33 12 -49 61 -86 36
-26 41 -27 150 -24 l114 3 3 55 c2 30 -1 141 -8 246 -15 264 -46 370 -139 476
-68 77 -170 112 -287 97z m125 -336 c1 -28 5 -33 25 -33 19 0 25 7 31 38 l8
37 12 -40 c10 -33 17 -41 40 -43 27 -3 27 -5 21 -50 -3 -26 -16 -75 -27 -110
-17 -52 -29 -70 -68 -100 -26 -20 -63 -46 -83 -56 l-36 -20 -65 43 c-83 54
-91 63 -118 141 -26 78 -30 197 -8 250 15 34 15 34 11 -34 -4 -58 -2 -68 10
-63 8 3 61 8 116 12 l102 8 1 66 1 66 13 -40 c8 -22 14 -55 14 -72z"/>
</g>
</svg>
